# xmcd
#
# Track frame offsets:
#	150
#	12487
#	25950
#	36815
#	48082
#	58927
#	70042
#	81305
#	94835
#	106010
#	115897
#	129320
#	141517
#	155225
#	164600
#	176797
#	191190
#
# Disc length: 2775 seconds
#
# Revision: 1
# Processed by: cddbd v1.5.2PL0 Copyright (c) Steve Scherf et al.
# Submitted via: audiograbber 1.83.01
#
DISCID=f40ad511
DTITLE=Nino Tempo and April Stevens - The Best Of
DYEAR=1900
DGENRE=Oldies
TTITLE0=Deep Purple
TTITLE1=Sweet and Lovely
TTITLE2=April Stevens_Teach Me Tiger
TTITLE3=Paradise
TTITLE4=We'll Alway Be Together
TTITLE5=Begin The Beguine
TTITLE6=Whispering
TTITLE7=Stardust
TTITLE8=Tea For Two
TTITLE9=I'm Confessing That I Love You
TTITLE10=The Coldest Night Of The Year
TTITLE11=I Love How You Love Me
TTITLE12=All Strung Out
TTITLE13=You'll Be Needing Me Baby
TTITLE14=I Can't Go On Livin' Baby Without You
TTITLE15=I'm Fallin' For You
TTITLE16=Why Don't You Do Right  
EXTD=
EXTT0=
EXTT1=
EXTT2=
EXTT3=
EXTT4=
EXTT5=
EXTT6=
EXTT7=
EXTT8=
EXTT9=
EXTT10=
EXTT11=
EXTT12=
EXTT13=
EXTT14=
EXTT15=
EXTT16=
PLAYORDER=
